<?xml version="1.0" encoding="UTF-8"?>
<svg xmlns="http://www.w3.org/2000/svg" xmlns:xlink="http://www.w3.org/1999/xlink" width="24px" height="24px" viewBox="0 0 24 24" version="1.1">
<g id="surface1">
<path style=" stroke:none;fill-rule:nonzero;fill:rgb(100%,100%,100%);fill-opacity:1;" d="M 18.199219 12.699219 C 18.199219 16.101562 21.199219 17.300781 21.199219 17.300781 C 21.199219 17.398438 20.699219 18.898438 19.601562 20.5 C 18.699219 21.898438 17.699219 23.300781 16.101562 23.300781 C 14.601562 23.300781 14.101562 22.398438 12.398438 22.398438 C 10.699219 22.398438 10.101562 23.300781 8.699219 23.300781 C 7.199219 23.398438 6.101562 21.800781 5.101562 20.398438 C 3.199219 17.601562 1.699219 12.398438 3.699219 9 C 4.699219 7.300781 6.5 6.199219 8.398438 6.199219 C 9.898438 6.199219 11.199219 7.199219 12.101562 7.199219 C 13 7.199219 14.699219 6 16.398438 6.199219 C 17.101562 6.199219 19.199219 6.5 20.5 8.398438 C 20.5 8.5 18.199219 9.800781 18.199219 12.699219 M 15.300781 4.300781 C 16.101562 3.300781 16.601562 2 16.5 0.699219 C 15.398438 0.699219 14 1.5 13.199219 2.398438 C 12.5 3.199219 11.800781 4.601562 12 5.898438 C 13.199219 6 14.5 5.199219 15.300781 4.300781 "/>
</g>
</svg>
