<?xml version="1.0" encoding="UTF-8"?>
<svg xmlns="http://www.w3.org/2000/svg" xmlns:xlink="http://www.w3.org/1999/xlink" width="24px" height="24px" viewBox="0 0 24 24" version="1.1">
<g id="surface1">
<path style=" stroke:none;fill-rule:evenodd;fill:rgb(100%,100%,100%);fill-opacity:1;" d="M 20.800781 0 L 3.199219 0 C 1.398438 0 0 1.398438 0 3.199219 L 0 20.699219 C 0 22.601562 1.398438 24 3.199219 24 L 11.800781 24 L 11.800781 15.398438 L 9.699219 15.398438 C 9.398438 15.398438 9.199219 15.199219 9.199219 14.898438 L 9.199219 12.101562 C 9.199219 11.800781 9.398438 11.601562 9.699219 11.601562 L 11.898438 11.601562 L 11.898438 8.898438 C 11.898438 5.800781 13.800781 4.101562 16.601562 4.101562 L 18.898438 4.101562 C 19.199219 4.101562 19.398438 4.300781 19.398438 4.601562 L 19.398438 7 C 19.398438 7.300781 19.199219 7.5 18.898438 7.5 L 17.5 7.5 C 16 7.5 15.699219 8.199219 15.699219 9.300781 L 15.699219 11.601562 L 19 11.601562 C 19.300781 11.601562 19.601562 11.898438 19.5 12.199219 L 19.101562 15 C 19.101562 15.300781 18.800781 15.5 18.601562 15.5 L 15.601562 15.5 L 15.601562 24.101562 L 20.699219 24.101562 C 22.5 24.101562 23.898438 22.699219 23.898438 20.898438 L 23.898438 3.199219 C 24 1.398438 22.601562 0 20.800781 0 Z M 20.800781 0 "/>
</g>
</svg>
