<svg width="217" height="67" viewBox="0 0 217 67" fill="none" xmlns="http://www.w3.org/2000/svg">
<g clip-path="url(#clip0)">
<path d="M69.1055 57.0782V51.2715H72.2613V51.7994H69.6854V53.8838H72.1804V54.4117H69.6854V56.5503H72.2613V57.0782H69.1055Z" fill="#231F20"/>
<path d="M76.9001 56.6456C76.6209 56.8193 76.3159 56.9473 75.9965 57.0246C75.673 57.0947 75.343 57.131 75.012 57.1328H73.3262V51.3262H75.012C75.3439 51.3261 75.6746 51.367 75.9965 51.448C76.3136 51.5191 76.6182 51.6377 76.9001 51.7999C77.326 52.0462 77.6767 52.4046 77.9144 52.8364C78.1521 53.2681 78.2677 53.7569 78.2488 54.2498C78.2579 54.7337 78.1376 55.2111 77.9004 55.6325C77.6632 56.0538 77.3178 56.4037 76.9001 56.6456V56.6456ZM76.6439 52.3007C76.3722 52.1127 76.0645 51.9836 75.7403 51.9217H75.2548H73.9061V56.6726H75.3627H75.8347C76.1566 56.6092 76.4606 56.4752 76.7248 56.2801C77.0257 56.0659 77.2596 55.7701 77.3991 55.4274C77.5561 55.0981 77.6345 54.7366 77.6284 54.3716C77.6711 53.9674 77.6002 53.5592 77.4239 53.1932C77.2475 52.8273 76.9727 52.5181 76.6304 52.3007H76.6439Z" fill="#231F20"/>
<path d="M83.0636 54.9401C83.0779 55.1474 83.0779 55.3554 83.0636 55.5627C83.0334 55.7642 82.9744 55.9603 82.8882 56.1448C82.7253 56.4694 82.4757 56.7423 82.1674 56.9329C81.859 57.1235 81.5039 57.2245 81.1417 57.2245C80.7795 57.2245 80.4245 57.1235 80.1161 56.9329C79.8077 56.7423 79.5581 56.4694 79.3952 56.1448C79.3091 55.9603 79.25 55.7642 79.2199 55.5627C79.2054 55.3554 79.2054 55.1474 79.2199 54.9401V51.3262H79.7998V54.9401C79.7859 55.1203 79.7859 55.3013 79.7998 55.4815C79.8294 55.6598 79.8839 55.8329 79.9616 55.9959C80.076 56.2141 80.2477 56.3969 80.4581 56.5244C80.6684 56.6518 80.9095 56.7192 81.1552 56.7192C81.4009 56.7192 81.642 56.6518 81.8524 56.5244C82.0627 56.3969 82.2344 56.2141 82.3488 55.9959C82.4265 55.8329 82.481 55.6598 82.5106 55.4815C82.5245 55.3013 82.5245 55.1203 82.5106 54.9401V51.3262H83.0771L83.0636 54.9401Z" fill="#231F20"/>
<path d="M89.6854 55.6163C89.4413 56.1196 89.0559 56.5402 88.5766 56.8264C88.0974 57.1126 87.5452 57.2518 86.9881 57.227C86.591 57.2348 86.1964 57.162 85.8279 57.0132C85.4595 56.8644 85.1247 56.6425 84.8437 56.3608C84.5563 56.0881 84.3288 55.7583 84.1755 55.3924C84.0222 55.0265 83.9467 54.6326 83.9536 54.2357C83.9471 53.8382 84.0215 53.4435 84.1723 53.0758C84.323 52.7081 84.5469 52.3751 84.8302 52.0971C85.1122 51.8167 85.4471 51.5956 85.8153 51.4469C86.1835 51.2981 86.5777 51.2247 86.9746 51.2309C87.4078 51.2236 87.8372 51.3133 88.2315 51.4936C88.6258 51.6739 88.9751 51.9402 89.2538 52.2731C89.4083 52.4288 89.5319 52.6125 89.6179 52.8145H89.038C88.8231 52.4788 88.5248 52.2049 88.1725 52.0198C87.8202 51.8347 87.4259 51.7447 87.0285 51.7588C86.7075 51.7587 86.3898 51.8247 86.0952 51.9527C85.8006 52.0808 85.5353 52.2681 85.3157 52.5032C85.0881 52.7328 84.9077 53.0052 84.7851 53.3048C84.6624 53.6044 84.5998 53.9254 84.6009 54.2493C84.6114 54.8958 84.8719 55.5128 85.3274 55.97C85.783 56.4272 86.3978 56.6887 87.042 56.6992C87.4434 56.7017 87.8386 56.5991 88.1884 56.4014C88.5296 56.2007 88.8276 55.9338 89.065 55.6163H89.6854Z" fill="#231F20"/>
<path d="M94.9317 57.0782L94.0955 55.1291H91.3982L90.562 57.0782H89.9551L92.4231 51.2715H93.084L95.5655 57.0782H94.9317ZM92.7603 51.9347L91.6274 54.6418H93.8797L92.7603 51.9347Z" fill="#231F20"/>
<path d="M96.8876 51.8535V57.0782H96.3076V51.7994H94.959V51.2715H98.1823V51.7994L96.8876 51.8535Z" fill="#231F20"/>
<path d="M98.8574 57.0782V51.2715H99.4374V57.0782H98.8574Z" fill="#231F20"/>
<path d="M105.56 56.3608C105.279 56.6424 104.944 56.8643 104.575 57.0132C104.207 57.162 103.812 57.2348 103.415 57.227C102.621 57.2365 101.855 56.9299 101.284 56.3743C100.992 56.1071 100.759 55.7809 100.601 55.417C100.443 55.0531 100.363 54.6597 100.367 54.2628C100.367 53.8623 100.446 53.4659 100.6 53.0962C100.753 52.7266 100.978 52.3912 101.262 52.1093C101.545 51.8274 101.881 51.6046 102.251 51.4538C102.621 51.3031 103.016 51.2273 103.415 51.2309C103.814 51.2244 104.211 51.2976 104.581 51.4464C104.951 51.5951 105.289 51.8163 105.573 52.0971C105.86 52.3726 106.088 52.7035 106.244 53.0699C106.4 53.4363 106.481 53.8305 106.481 54.2289C106.481 54.6274 106.4 55.0216 106.244 55.388C106.088 55.7544 105.86 56.0853 105.573 56.3608H105.56ZM105.223 52.4761C104.873 52.1314 104.43 51.8982 103.949 51.8058C103.468 51.7135 102.97 51.7662 102.518 51.9572C102.067 52.1483 101.682 52.4692 101.412 52.8795C101.142 53.2898 100.999 53.7711 101.001 54.2628C100.998 54.5842 101.061 54.9029 101.186 55.1988C101.311 55.4947 101.496 55.7612 101.73 55.9818C101.956 56.2134 102.227 56.3964 102.526 56.5197C102.825 56.643 103.146 56.7041 103.469 56.6991C103.795 56.7043 104.118 56.6434 104.419 56.5202C104.72 56.3969 104.994 56.2138 105.223 55.9818C105.456 55.7561 105.642 55.4848 105.767 55.1845C105.892 54.8841 105.955 54.5613 105.951 54.2357C105.955 53.9081 105.893 53.5831 105.767 53.2806C105.642 52.978 105.457 52.7043 105.223 52.4761V52.4761Z" fill="#231F20"/>
<path d="M111.414 57.0782L107.988 51.9753V57.0782H107.408V51.2715H108.19L111.414 56.0901V51.2715H111.967V57.0782H111.414Z" fill="#231F20"/>
<path d="M120.059 57.2271L118.71 55.8736C118.541 56.2211 118.307 56.5334 118.022 56.794C117.725 57.0458 117.346 57.1805 116.957 57.173C116.709 57.184 116.462 57.144 116.23 57.0556C115.998 56.9671 115.786 56.8321 115.608 56.6586C115.435 56.4987 115.298 56.3039 115.205 56.087C115.112 55.8701 115.065 55.6359 115.069 55.3998C115.06 55.0066 115.2 54.6246 115.46 54.3306C115.723 54.0438 116.045 53.8176 116.404 53.6673C116.23 53.5108 116.076 53.3335 115.945 53.1394C115.82 52.9364 115.754 52.7017 115.757 52.4627C115.754 52.2857 115.79 52.1103 115.862 51.9489C115.934 51.7875 116.041 51.644 116.175 51.5287C116.446 51.2985 116.79 51.1737 117.146 51.1768C117.323 51.1758 117.499 51.2099 117.663 51.2773C117.828 51.3446 117.977 51.4439 118.103 51.5693C118.238 51.69 118.345 51.8382 118.417 52.0041C118.489 52.1699 118.525 52.3494 118.521 52.5304C118.521 52.8393 118.4 53.1358 118.184 53.356C117.964 53.5766 117.697 53.7434 117.402 53.8433L118.494 54.9261L119.331 53.3019H120.059L118.98 55.3457L120.45 56.6992L120.059 57.2271ZM116.916 54.1411C116.612 54.2443 116.336 54.4155 116.107 54.6419C115.993 54.7498 115.902 54.8798 115.84 55.024C115.777 55.1683 115.744 55.3237 115.743 55.4811C115.739 55.6379 115.768 55.7937 115.829 55.9384C115.889 56.083 115.98 56.2132 116.094 56.3203C116.316 56.5428 116.616 56.6691 116.93 56.6722C117.089 56.673 117.246 56.6409 117.393 56.5781C117.539 56.5152 117.67 56.4228 117.78 56.3067C117.887 56.1955 117.982 56.073 118.063 55.9413C118.13 55.8194 118.211 55.6841 118.292 55.5081L116.916 54.1411ZM117.793 51.9754C117.637 51.8372 117.434 51.7645 117.227 51.7724C117.024 51.7717 116.828 51.8438 116.674 51.9754C116.597 52.0404 116.536 52.1213 116.494 52.2124C116.452 52.3036 116.431 52.4029 116.431 52.5033C116.439 52.7074 116.515 52.9029 116.647 53.0582L116.862 53.2883L117.078 53.4914L117.415 53.3425C117.525 53.2958 117.629 53.2367 117.726 53.1665C117.826 53.0937 117.907 52.9981 117.964 52.8875C118.02 52.7769 118.049 52.6545 118.049 52.5304C118.053 52.4267 118.035 52.3234 117.995 52.2276C117.956 52.1318 117.896 52.0458 117.82 51.9754H117.793Z" fill="#231F20"/>
<path d="M124.778 51.8535V57.0782H124.198V51.7994H122.85V51.2715H126.073V51.7994L124.778 51.8535Z" fill="#231F20"/>
<path d="M130.119 54.3711C129.798 54.6996 129.364 54.8932 128.905 54.9125L130.537 57.0782H129.809L127.84 54.4523H128.474C128.684 54.4481 128.892 54.4162 129.094 54.3575C129.335 54.2895 129.551 54.152 129.715 53.9621C129.879 53.7723 129.984 53.5383 130.017 53.2892C130.05 53.0401 130.01 52.7867 129.901 52.5604C129.792 52.3341 129.619 52.1448 129.404 52.0159C129.236 51.9271 129.053 51.8676 128.865 51.84C128.672 51.823 128.478 51.823 128.285 51.84H127.273V57.0782H126.693V51.2715H128.514H128.892C129.132 51.2994 129.368 51.3585 129.593 51.4474C129.91 51.5904 130.177 51.8255 130.36 52.1222C130.542 52.4189 130.632 52.7638 130.618 53.1123C130.631 53.3459 130.593 53.5795 130.507 53.7969C130.421 54.0143 130.288 54.2102 130.119 54.3711V54.3711Z" fill="#231F20"/>
<path d="M135.676 57.0787L134.894 55.1837H132.197L131.347 57.1328H130.74L133.208 51.3262H133.856L136.351 57.1328L135.676 57.0787ZM133.505 51.9353L132.372 54.6423H134.611L133.505 51.9353Z" fill="#231F20"/>
<path d="M136.984 57.0782V51.2715H137.591V57.0782H136.984Z" fill="#231F20"/>
<path d="M142.756 57.0782L139.33 51.9753V57.0782H138.75V51.2715H139.532L142.756 56.0901V51.2715H143.335V57.0782H142.756Z" fill="#231F20"/>
<path d="M144.523 57.0782V51.2715H145.103V57.0782H144.523Z" fill="#231F20"/>
<path d="M150.295 57.0782L146.869 51.9753V57.0782H146.289V51.2715H147.031L150.254 56.0901V51.2715H150.834V57.0782H150.295Z" fill="#231F20"/>
<path d="M157.943 54.4664C157.916 54.8445 157.816 55.2138 157.647 55.5528C157.478 55.8919 157.244 56.1943 156.958 56.4425C156.39 56.9592 155.648 57.2398 154.881 57.2276C154.072 57.2383 153.291 56.9268 152.71 56.3613C152.413 56.0912 152.176 55.7609 152.016 55.3923C151.856 55.0236 151.775 54.625 151.779 54.2227C151.775 53.8225 151.856 53.4259 152.016 53.0595C152.177 52.693 152.413 52.3651 152.71 52.0977C152.995 51.8168 153.332 51.5956 153.702 51.4469C154.073 51.2982 154.469 51.2249 154.868 51.2314C155.317 51.2202 155.762 51.3091 156.173 51.4916C156.583 51.6742 156.948 51.9459 157.242 52.2872C157.391 52.4618 157.514 52.658 157.606 52.8692H156.931C156.723 52.5162 156.419 52.2299 156.055 52.0435C155.692 51.8531 155.29 51.7511 154.881 51.7458C154.553 51.7405 154.227 51.8026 153.923 51.9283C153.619 52.054 153.344 52.2406 153.115 52.4767C152.876 52.7031 152.686 52.9759 152.557 53.2784C152.427 53.581 152.36 53.9069 152.36 54.2363C152.36 54.5656 152.427 54.8915 152.557 55.1941C152.686 55.4966 152.876 55.7694 153.115 55.9959C153.353 56.226 153.634 56.4066 153.942 56.5274C154.249 56.6482 154.578 56.7068 154.908 56.6997C155.428 56.7026 155.934 56.5364 156.351 56.226C156.791 55.9416 157.109 55.5021 157.242 54.9942H154.018V54.4664H157.943Z" fill="#231F20"/>
<path d="M163.579 55.5625V55.8467C163.562 56.033 163.516 56.2155 163.444 56.3881C163.337 56.6531 163.148 56.8771 162.906 57.0278C162.664 57.1786 162.38 57.2485 162.096 57.2273C161.693 57.2381 161.302 57.0927 161.003 56.8212C160.85 56.6834 160.727 56.5144 160.643 56.3254C160.559 56.1364 160.517 55.9317 160.518 55.7249H161.084C161.077 55.857 161.099 55.9891 161.149 56.1118C161.198 56.2345 161.273 56.3448 161.37 56.4351C161.466 56.5254 161.581 56.5934 161.707 56.6344C161.832 56.6754 161.965 56.6883 162.096 56.6724C162.254 56.687 162.413 56.6536 162.553 56.5764C162.692 56.4991 162.806 56.3817 162.878 56.2392C162.95 56.1009 162.991 55.9485 162.999 55.7926C163.014 55.6215 163.014 55.4493 162.999 55.2782V51.2988H163.579V55.5625Z" fill="#231F20"/>
<path d="M167.383 56.7402C167.221 56.8994 167.029 57.0246 166.818 57.1083C166.608 57.1919 166.382 57.2325 166.156 57.2274C165.924 57.2374 165.692 57.2007 165.474 57.1193C165.256 57.0379 165.057 56.9136 164.888 56.7537C164.721 56.5934 164.589 56.3999 164.501 56.1854C164.412 55.971 164.37 55.7404 164.376 55.5084H164.955C164.938 55.6703 164.957 55.834 165.012 55.9874C165.066 56.1408 165.154 56.2798 165.27 56.3943C165.385 56.5088 165.525 56.5957 165.678 56.6485C165.831 56.7014 165.995 56.7188 166.156 56.6995C166.309 56.7032 166.461 56.6761 166.603 56.6199C166.745 56.5637 166.875 56.4795 166.984 56.3723C167.093 56.2651 167.18 56.137 167.239 55.9957C167.299 55.8543 167.329 55.7024 167.329 55.549C167.331 55.3859 167.294 55.2247 167.221 55.0788C167.148 54.9329 167.042 54.8064 166.911 54.7099C166.786 54.6166 166.65 54.5393 166.506 54.4798L166.034 54.3173C165.836 54.2645 165.642 54.1966 165.454 54.1143C165.286 54.0441 165.128 53.9532 164.982 53.8436C164.836 53.711 164.72 53.5478 164.643 53.3653C164.566 53.1829 164.53 52.9858 164.537 52.7878C164.532 52.5776 164.571 52.3686 164.652 52.1749C164.734 51.9811 164.855 51.8071 165.009 51.6644C165.319 51.3736 165.732 51.2179 166.156 51.2313C166.365 51.2267 166.572 51.2639 166.767 51.3406C166.961 51.4172 167.139 51.5319 167.289 51.6779C167.441 51.8217 167.562 51.9959 167.643 52.1894C167.725 52.3829 167.765 52.5914 167.761 52.8014H167.181C167.184 52.6656 167.159 52.5306 167.108 52.4049C167.057 52.2791 166.981 52.1653 166.884 52.0705C166.793 51.967 166.681 51.8844 166.555 51.8284C166.429 51.7723 166.293 51.7441 166.156 51.7456C165.88 51.746 165.614 51.8525 165.414 52.0434C165.316 52.1346 165.239 52.2459 165.188 52.3696C165.137 52.4934 165.113 52.6268 165.117 52.7608C165.113 52.9197 165.154 53.0767 165.235 53.2133C165.316 53.3499 165.434 53.4605 165.576 53.5323C165.72 53.6052 165.869 53.6685 166.021 53.7218L166.493 53.8571C166.878 53.9601 167.227 54.1659 167.504 54.4527C167.777 54.7458 167.922 55.1351 167.909 55.5355C167.912 55.7624 167.867 55.9874 167.777 56.1952C167.686 56.4031 167.552 56.5889 167.383 56.7402V56.7402Z" fill="#231F20"/>
<path d="M174.262 55.6163C174.017 56.1196 173.632 56.5402 173.153 56.8264C172.674 57.1126 172.121 57.2518 171.564 57.227C171.167 57.2348 170.773 57.162 170.404 57.0132C170.036 56.8644 169.701 56.6425 169.42 56.3608C169.132 56.0881 168.905 55.7583 168.752 55.3924C168.598 55.0265 168.523 54.6326 168.53 54.2357C168.523 53.8382 168.598 53.4435 168.748 53.0758C168.899 52.7081 169.123 52.3751 169.406 52.0971C169.688 51.8167 170.023 51.5956 170.391 51.4469C170.76 51.2981 171.154 51.2247 171.551 51.2309C171.984 51.2236 172.413 51.3133 172.808 51.4936C173.202 51.6739 173.551 51.9402 173.83 52.2731C173.984 52.4288 174.108 52.6125 174.194 52.8145H173.547C173.332 52.4788 173.034 52.2049 172.681 52.0198C172.329 51.8347 171.935 51.7447 171.537 51.7588C171.216 51.7587 170.899 51.8247 170.604 51.9527C170.309 52.0808 170.044 52.2681 169.824 52.5032C169.597 52.7328 169.416 53.0052 169.294 53.3048C169.171 53.6044 169.109 53.9254 169.11 54.2493C169.12 54.8958 169.381 55.5128 169.836 55.97C170.292 56.4272 170.907 56.6887 171.551 56.6992C171.952 56.7017 172.347 56.5991 172.697 56.4014C173.038 56.2007 173.336 55.9338 173.574 55.6163H174.262Z" fill="#231F20"/>
<path d="M19.2865 18.9493C19.2865 18.9493 21.8625 10.2596 26.0298 10.6386C27.4585 10.7882 28.8155 11.3422 29.9425 12.2361C31.0695 13.1299 31.9202 14.3268 32.3955 15.6872C32.3955 15.6872 37.5744 32.4305 44.1559 34.7315L35.0929 12.0598C35.0929 12.0598 31.9775 5.69815 25.3555 7.56603C25.3016 7.56603 17.7491 9.88058 19.2865 18.9493Z" fill="#231F20"/>
<path d="M30.6951 0.446541C31.2226 0.766397 31.6438 1.23612 31.9053 1.79627C32.1668 2.35642 32.2569 2.98183 32.1641 3.59337C32.0713 4.2049 31.7999 4.77509 31.3841 5.23176C30.9684 5.68844 30.427 6.01108 29.8285 6.15888C29.23 6.30668 28.6013 6.27298 28.0219 6.06206C27.4424 5.85113 26.9384 5.47246 26.5735 4.97395C26.2085 4.47544 25.9992 3.87949 25.9718 3.26152C25.9445 2.64355 26.1004 2.03132 26.4198 1.5023C26.8477 0.793762 27.5382 0.284612 28.3398 0.0866618C29.1414 -0.111289 29.9885 0.0181462 30.6951 0.446541V0.446541Z" fill="#231F20"/>
<path d="M50.0217 30.3467C50.0217 30.3467 56.1986 36.9655 53.8114 40.3358C52.969 41.5236 51.8042 42.4435 50.4556 42.9858C49.1071 43.5282 47.6316 43.6701 46.205 43.3948C46.205 43.3948 30.021 38.6574 23.8711 43.9768L47.9987 47.4689C47.9987 47.4689 54.8094 47.6855 56.792 41.2968C56.792 41.2968 58.5992 33.5952 50.0217 30.3467Z" fill="#231F20"/>
<path d="M60.1915 49.5665C59.6507 49.8636 59.0342 49.9931 58.4201 49.9384C57.806 49.8837 57.2218 49.6473 56.7416 49.2593C56.2614 48.8712 55.9067 48.3489 55.7225 47.7584C55.5382 47.1679 55.5327 46.5359 55.7065 45.9422C55.8804 45.3486 56.2258 44.82 56.6992 44.4236C57.1725 44.0271 57.7524 43.7804 58.3654 43.7149C58.9785 43.6493 59.5971 43.7678 60.1431 44.0553C60.689 44.3428 61.1377 44.7864 61.4323 45.33C61.8264 46.0571 61.9171 46.9115 61.6845 47.7057C61.4519 48.4998 60.915 49.169 60.1915 49.5665Z" fill="#231F20"/>
<path d="M24.7607 50.2166C24.7607 50.2166 16.1157 52.856 14.1602 49.215C13.5549 47.9392 13.3211 46.5177 13.4858 45.1144C13.6504 43.7111 14.2068 42.383 15.0908 41.2832C15.0908 41.2832 27.1208 28.3299 25.3945 21.5352L10.3435 40.8366C9.36287 42.53 8.98998 44.5095 9.28691 46.4453C9.58384 48.3811 10.5327 50.1563 11.9753 51.4754C13.9746 52.6179 16.2776 53.1104 18.5673 52.8849C20.857 52.6595 23.0208 51.7273 24.7607 50.2166V50.2166Z" fill="#231F20"/>
<path d="M3.08875 50.8797C3.06255 50.2615 3.21971 49.6494 3.54031 49.1209C3.86091 48.5924 4.33054 48.1712 4.88976 47.9107C5.44898 47.6502 6.07264 47.5621 6.68179 47.6575C7.29093 47.7529 7.85817 48.0276 8.3117 48.4467C8.76522 48.8659 9.08465 49.4106 9.22953 50.012C9.37441 50.6135 9.33823 51.2445 9.12557 51.8253C8.91292 52.4061 8.53333 52.9104 8.0349 53.2746C7.53646 53.6388 6.94158 53.8463 6.32555 53.871C5.91701 53.8891 5.50895 53.826 5.12481 53.6853C4.74066 53.5446 4.38803 53.329 4.08721 53.051C3.78639 52.773 3.54331 52.438 3.37196 52.0654C3.20061 51.6927 3.10435 51.2898 3.08875 50.8797V50.8797Z" fill="#231F20"/>
<path d="M37.0081 15.6066C37.0081 15.6066 45.761 13.3327 47.5547 17.0684C48.1785 18.3756 48.4173 19.8344 48.2429 21.2732C48.0684 22.712 47.4881 24.0708 46.5702 25.1897C46.5702 25.1897 34.9447 38.3189 36.4417 45.1814L51.0073 25.6093C51.0073 25.6093 54.4464 19.5454 49.8339 14.9028C49.8339 14.9028 43.9672 9.61046 37.0081 15.6066Z" fill="#CC2228"/>
<path d="M58.68 15.8767C58.68 16.4957 58.497 17.1007 58.1541 17.6152C57.8111 18.1296 57.3238 18.5304 56.7537 18.7666C56.1837 19.0029 55.5566 19.064 54.9519 18.9423C54.3472 18.8205 53.7921 18.5214 53.3569 18.0828C52.9218 17.6441 52.6261 17.0857 52.5074 16.4783C52.3888 15.8709 52.4524 15.2418 52.6903 14.6708C52.9281 14.0997 53.3295 13.6123 53.8436 13.2704C54.3577 12.9284 54.9614 12.7473 55.5781 12.75C55.9866 12.75 56.3911 12.831 56.7683 12.9883C57.1455 13.1456 57.4881 13.3761 57.7763 13.6666C58.0645 13.9571 58.2927 14.3019 58.4478 14.6812C58.6029 15.0605 58.6818 15.4667 58.68 15.8767V15.8767Z" fill="#CC2228"/>
<path d="M43.1024 47.9148C43.1024 47.9148 40.6478 56.6451 36.5344 56.3068C35.0852 56.1986 33.6977 55.674 32.5377 54.7955C31.3778 53.917 30.4945 52.7218 29.9933 51.3528C29.9933 51.3528 25.7046 34.9886 17.9902 32.4033L27.4309 54.9668C27.4309 54.9668 31.6387 60.3809 37.2357 59.3387C37.2491 59.3793 44.7612 56.97 43.1024 47.9148Z" fill="#CC2228"/>
<path d="M31.9367 66.5531C31.4047 66.2412 30.9767 65.778 30.707 65.222C30.4372 64.6661 30.3378 64.0423 30.4213 63.4296C30.5048 62.817 30.7674 62.2429 31.1759 61.78C31.5845 61.3171 32.1206 60.9862 32.7165 60.8291C33.3125 60.672 33.9414 60.6958 34.5239 60.8975C35.1064 61.0991 35.6162 61.4696 35.9889 61.962C36.3616 62.4544 36.5804 63.0467 36.6177 63.6639C36.655 64.2811 36.5091 64.8956 36.1985 65.4296C35.9934 65.7856 35.7202 66.0973 35.3945 66.3467C35.0688 66.5961 34.6971 66.7783 34.3009 66.8828C33.9046 66.9872 33.4917 67.0119 33.0859 66.9553C32.6801 66.8987 32.2895 66.762 31.9367 66.5531Z" fill="#CC2228"/>
<path d="M13.1217 36.4102C13.1217 36.4102 6.37843 30.3464 8.52281 26.7866C9.30085 25.6089 10.3951 24.6763 11.6792 24.0967C12.9632 23.517 14.3844 23.314 15.7786 23.511C15.7786 23.511 33.0415 27.1791 37.9507 22.1575L13.7152 19.1797C11.7511 19.1848 9.84991 19.8748 8.33687 21.1315C6.82383 22.3883 5.79303 24.1338 5.42087 26.0692C5.42087 26.0692 4.30148 33.9062 13.1217 36.4102Z" fill="#CC2228"/>
<path d="M1.37602 18.1235C1.88952 17.78 2.49308 17.5974 3.11017 17.5986C3.72725 17.5999 4.33006 17.7851 4.84214 18.1307C5.35421 18.4763 5.7525 18.9667 5.98648 19.5398C6.22046 20.1128 6.2796 20.7427 6.15639 21.3496C6.03318 21.9564 5.73319 22.5129 5.29444 22.9484C4.85569 23.3839 4.29796 23.6788 3.69198 23.7957C3.08599 23.9127 2.45905 23.8464 1.89067 23.6052C1.32228 23.3641 0.838048 22.959 0.499385 22.4413C0.0479688 21.7512 -0.113206 20.9099 0.0510209 20.101C0.215248 19.2921 0.691551 18.5813 1.37602 18.1235V18.1235Z" fill="#CC2228"/>
<path d="M125.722 44.4368V26.9897C125.822 25.2866 125.551 23.582 124.926 21.9952C124.53 21.2386 123.918 20.6173 123.169 20.2101C122.42 19.8028 121.567 19.628 120.719 19.7077C119.884 19.636 119.045 19.7829 118.284 20.134C117.523 20.4851 116.865 21.0285 116.376 21.7109C115.558 23.1684 115.178 24.8328 115.284 26.5024V44.4368H105.506V26.5836C105.587 24.9677 105.277 23.3561 104.602 21.8869C104.213 21.167 103.623 20.5771 102.904 20.1899C102.185 19.8027 101.369 19.6351 100.556 19.7077C99.6943 19.6442 98.8312 19.8126 98.056 20.1957C97.2807 20.5788 96.6214 21.1626 96.146 21.8869C95.3386 23.4504 94.9702 25.205 95.0805 26.9626V44.4368H85.3027V11.6H94.4332V15.1192H94.5815C95.4234 13.5522 96.7549 12.3062 98.3713 11.5729C100.008 10.8255 101.793 10.46 103.591 10.5036C105.562 10.4522 107.505 10.9793 109.182 12.0204C110.859 13.0615 112.197 14.5713 113.031 16.3644C114.219 14.2368 116.024 12.5225 118.207 11.45C120.389 10.3774 122.845 9.9973 125.248 10.3603C127.651 10.7233 129.887 11.8122 131.658 13.482C133.429 15.1518 134.652 17.3234 135.163 19.7077C135.35 20.7863 135.467 21.8759 135.514 22.9697C135.514 23.457 135.514 24.039 135.514 24.7022V44.4638L125.722 44.4368Z" fill="#CC2228"/>
<path d="M164.712 44.6939V41.1476H164.563C163.676 42.7857 162.244 44.0597 160.517 44.748C158.811 45.4725 156.975 45.8365 155.123 45.8173C152.878 45.897 150.643 45.4814 148.576 44.5996C146.509 43.7179 144.66 42.3917 143.16 40.7145C140.169 37.2963 138.587 32.863 138.736 28.3161C138.607 23.7783 140.22 19.364 143.241 15.9854C144.729 14.3112 146.563 12.9826 148.615 12.092C150.667 11.2014 152.888 10.7702 155.123 10.8284C156.978 10.8083 158.816 11.1819 160.517 11.9248C162.234 12.6281 163.684 13.8604 164.658 15.444H164.765V11.9519H174.516V44.6939H164.712ZM162.392 22.347C161.62 21.5658 160.696 20.9532 159.677 20.5479C158.658 20.1426 157.567 19.9533 156.471 19.9919C155.38 19.96 154.294 20.1648 153.289 20.5923C152.283 21.0197 151.382 21.6598 150.645 22.4688C149.9 23.2652 149.319 24.2011 148.935 25.223C148.551 26.2449 148.371 27.3328 148.406 28.4244C148.383 29.5012 148.577 30.5716 148.975 31.5716C149.374 32.5716 149.969 33.4807 150.726 34.2446C152.28 35.7788 154.372 36.6386 156.552 36.6386C158.732 36.6386 160.824 35.7788 162.378 34.2446C163.134 33.4535 163.726 32.5197 164.119 31.4974C164.513 30.4751 164.7 29.3846 164.671 28.2891C164.71 27.1956 164.528 26.1056 164.136 25.0845C163.744 24.0634 163.151 23.1323 162.392 22.347V22.347Z" fill="#CC2228"/>
<path d="M212.63 40.6602C211.211 42.3195 209.444 43.6426 207.454 44.5343C205.465 45.426 203.304 45.8641 201.126 45.8171C199.294 45.8894 197.469 45.564 195.775 44.8632C194.08 44.1624 192.556 43.1027 191.307 41.7565V55.6032H181.557V11.9517H190.714V15.5521H190.903C192.103 14.0119 193.651 12.7803 195.42 11.9589C197.188 11.1376 199.125 10.75 201.072 10.8282C203.315 10.7593 205.544 11.2121 207.585 12.1514C209.625 13.0906 211.421 14.4908 212.832 16.2424C215.654 19.7465 217.128 24.1511 216.986 28.6543C217.099 33.0651 215.542 37.355 212.63 40.6602V40.6602ZM204.915 22.4416C204.165 21.6444 203.257 21.0143 202.248 20.5922C201.24 20.1702 200.155 19.9656 199.062 19.9917C197.974 19.9634 196.892 20.1672 195.887 20.5895C194.883 21.0118 193.979 21.643 193.236 22.4416C191.738 24.0386 190.903 26.1494 190.903 28.343C190.903 30.5365 191.738 32.6474 193.236 34.2444C194.785 35.7884 196.879 36.6549 199.062 36.6549C201.245 36.6549 203.34 35.7884 204.889 34.2444C206.387 32.6474 207.221 30.5365 207.221 28.343C207.221 26.1494 206.387 24.0386 204.889 22.4416H204.915Z" fill="#CC2228"/>
<path d="M78.2487 11.5996C78.2487 11.5996 78.2487 11.735 78.2487 11.8026C78.2594 13.1021 77.7553 14.3527 76.8473 15.2792C75.9394 16.2057 74.7018 16.7323 73.407 16.743C72.1122 16.7538 70.8661 16.2479 69.9429 15.3366C69.0198 14.4254 68.4951 13.1834 68.4844 11.8839V44.3687H78.2487V11.5996Z" fill="#231F20"/>
<path d="M76.4297 12.0875C76.4297 12.7091 76.2458 13.3168 75.9014 13.8335C75.557 14.3502 75.0675 14.7527 74.495 14.9899C73.9225 15.2272 73.2927 15.2886 72.6854 15.1663C72.0781 15.0441 71.5206 14.7436 71.0835 14.3031C70.6465 13.8626 70.3496 13.3018 70.2304 12.6918C70.1112 12.0818 70.175 11.4499 70.4139 10.8764C70.6528 10.3028 71.056 9.81333 71.5723 9.46992C72.0886 9.1265 72.6948 8.94462 73.3143 8.9473C73.725 8.94549 74.132 9.02557 74.5117 9.18291C74.8914 9.34025 75.2362 9.5717 75.526 9.86384C75.8158 10.156 76.0449 10.503 76.2001 10.8847C76.3552 11.2664 76.4332 11.6753 76.4297 12.0875Z" fill="#CC2228"/>
</g>
<defs>
<clipPath id="clip0">
<rect width="217" height="67" fill="white"/>
</clipPath>
</defs>
</svg>
